<svg width="16" height="16" viewBox="0 0 16 16" fill="none" xmlns="http://www.w3.org/2000/svg">
<path fill-rule="evenodd" clip-rule="evenodd" d="M0 3.14286C0 2.6882 0.180612 2.25217 0.502102 1.93068C0.823594 1.60919 1.25963 1.42858 1.71428 1.42858H14.2857C14.7404 1.42858 15.1764 1.60919 15.4979 1.93068C15.8194 2.25217 16 2.6882 16 3.14286V3.53372L8.43772 8.57601C8.30571 8.65545 8.15404 8.69623 8 8.69372C7.84596 8.69623 7.69429 8.65545 7.56228 8.57601L0 3.53372V3.14286ZM0 5.25029V12.8572C0 13.3118 0.180612 13.7478 0.502102 14.0693C0.823594 14.3908 1.25963 14.5715 1.71428 14.5715H14.2857C14.7404 14.5715 15.1764 14.3908 15.4979 14.0693C15.8194 13.7478 16 13.3118 16 12.8572V5.25029L9.22631 9.76684L9.22053 9.77147C8.85592 10.0033 8.43213 10.1252 8 10.1223C7.57143 10.1223 7.13943 10.0057 6.77943 9.77147L6.77372 9.76684L0 5.25029Z" fill="#5D6778"/>
</svg>
