<svg width="20" height="20" viewBox="0 0 20 20" fill="none" xmlns="http://www.w3.org/2000/svg">
<path d="M15.8333 2.5H4.16667C3.24619 2.5 2.5 3.24619 2.5 4.16667V15.8333C2.5 16.7538 3.24619 17.5 4.16667 17.5H15.8333C16.7538 17.5 17.5 16.7538 17.5 15.8333V4.16667C17.5 3.24619 16.7538 2.5 15.8333 2.5Z" stroke="#27364B" stroke-width="1.75" stroke-linecap="round" stroke-linejoin="round"/>
<path d="M7.08333 8.33331C7.77368 8.33331 8.33333 7.77367 8.33333 7.08331C8.33333 6.39296 7.77368 5.83331 7.08333 5.83331C6.39297 5.83331 5.83333 6.39296 5.83333 7.08331C5.83333 7.77367 6.39297 8.33331 7.08333 8.33331Z" stroke="#27364B" stroke-width="1.75" stroke-linecap="round" stroke-linejoin="round"/>
<path d="M17.5 12.5L13.3333 8.33331L4.16667 17.5" stroke="#27364B" stroke-width="1.75" stroke-linecap="round" stroke-linejoin="round"/>
</svg>
