<svg width="16" height="16" viewBox="0 0 16 16" fill="none" xmlns="http://www.w3.org/2000/svg">
<path fill-rule="evenodd" clip-rule="evenodd" d="M3.44815 8C3.44815 7.48037 3.5344 6.98212 3.68853 6.51487L0.992276 4.456C0.466776 5.52287 0.170776 6.72512 0.170776 8C0.170776 9.27388 0.466526 10.4753 0.991151 11.5415L3.6859 9.47863C3.53328 9.0135 3.44815 8.51713 3.44815 8Z" fill="#FBBC05"/>
<path fill-rule="evenodd" clip-rule="evenodd" d="M8.18218 3.27275C9.31106 3.27275 10.3307 3.67275 11.1318 4.32725L13.4623 2C12.0422 0.763625 10.2214 0 8.18218 0C5.01618 0 2.29518 1.8105 0.99231 4.456L3.68843 6.51487C4.30968 4.62912 6.08056 3.27275 8.18218 3.27275Z" fill="#EA4335"/>
<path fill-rule="evenodd" clip-rule="evenodd" d="M8.18219 12.7272C6.08069 12.7272 4.30981 11.3709 3.68856 9.48512L0.99231 11.5436C2.29518 14.1895 5.01619 16 8.18219 16C10.1362 16 12.0018 15.3061 13.4019 14.0061L10.8427 12.0276C10.1206 12.4825 9.21119 12.7272 8.18219 12.7272Z" fill="#34A853"/>
<path fill-rule="evenodd" clip-rule="evenodd" d="M15.8293 8C15.8293 7.52725 15.7564 7.01812 15.6471 6.5455H8.18213V9.63637H12.4791C12.2643 10.6902 11.6795 11.5004 10.8426 12.0276L13.4019 14.0061C14.8726 12.6411 15.8293 10.6076 15.8293 8Z" fill="#4285F4"/>
</svg>
