<svg width="102" height="32" viewBox="0 0 102 32" fill="none" xmlns="http://www.w3.org/2000/svg">
<path d="M20.9769 7.34854L14.704 3.55509C14.1119 3.19292 13.4388 3.0015 12.7532 3.00031C10.7094 3.00031 8.83475 4.71225 8.83475 7.10502V21.3073L20.9769 13.9669C23.4083 12.4947 23.4083 8.81996 20.9769 7.34854ZM12.3484 14.448V6.86793L18.6163 10.6567L12.3484 14.448Z" fill="#4C68D5"/>
<path d="M24.3489 28.9844C24.3489 29.0273 12.4908 28.966 12.4908 28.966L11.4434 28.8425C9.74672 28.644 8.44425 27.1233 8.50197 25.3346C8.50197 25.2917 8.50565 25.2519 8.50811 25.2103C8.55471 24.4365 8.82608 23.6961 9.28582 23.0885C9.47253 22.8461 9.70091 22.6425 9.95916 22.4882L18.9782 17.0725C20.8414 15.9535 22.3931 15.562 23.1999 13.5341C23.4974 12.7757 23.626 11.9562 23.5757 11.1379L23.5446 10.5865L24.4651 15.9204C24.583 16.8264 24.4013 17.7537 23.9211 18.5169C23.6326 18.9785 23.2475 19.3653 22.7951 19.6479L12.3295 24.8943C12.3191 24.9006 12.309 24.9074 12.2993 24.9149C12.0127 25.1293 12.1896 25.6069 12.5403 25.5867L21.2515 25.6403C22.9433 25.5417 24.3526 27.2112 24.3489 28.9844Z" fill="#4C68D5"/>
<path d="M45.76 22.5V9.54H47.956L52.24 18.144L56.524 9.54H58.72V22.5H56.434V14.76L52.672 22.5H51.808L48.046 14.76V22.5H45.76ZM65.1343 22.77C64.1383 22.77 63.2593 22.557 62.4973 22.131C61.7413 21.699 61.1473 21.108 60.7153 20.358C60.2893 19.602 60.0763 18.738 60.0763 17.766C60.0763 16.704 60.2863 15.78 60.7063 14.994C61.1263 14.208 61.7053 13.599 62.4433 13.167C63.1813 12.729 64.0303 12.51 64.9903 12.51C66.0103 12.51 66.8773 12.75 67.5913 13.23C68.3053 13.71 68.8333 14.385 69.1753 15.255C69.5173 16.125 69.6373 17.148 69.5353 18.324H67.1143V17.424C67.1143 16.434 66.9553 15.723 66.6373 15.291C66.3253 14.853 65.8123 14.634 65.0983 14.634C64.2643 14.634 63.6493 14.889 63.2533 15.399C62.8633 15.903 62.6683 16.65 62.6683 17.64C62.6683 18.546 62.8633 19.248 63.2533 19.746C63.6493 20.238 64.2283 20.484 64.9903 20.484C65.4703 20.484 65.8813 20.379 66.2233 20.169C66.5653 19.959 66.8263 19.656 67.0063 19.26L69.4543 19.962C69.0883 20.85 68.5093 21.54 67.7173 22.032C66.9313 22.524 66.0703 22.77 65.1343 22.77ZM61.9123 18.324V16.506H68.3563V18.324H61.9123ZM75.4555 22.77C74.4595 22.77 73.5805 22.557 72.8185 22.131C72.0625 21.699 71.4685 21.108 71.0365 20.358C70.6105 19.602 70.3975 18.738 70.3975 17.766C70.3975 16.704 70.6075 15.78 71.0275 14.994C71.4475 14.208 72.0265 13.599 72.7645 13.167C73.5025 12.729 74.3515 12.51 75.3115 12.51C76.3315 12.51 77.1985 12.75 77.9125 13.23C78.6265 13.71 79.1545 14.385 79.4965 15.255C79.8385 16.125 79.9585 17.148 79.8565 18.324H77.4355V17.424C77.4355 16.434 77.2765 15.723 76.9585 15.291C76.6465 14.853 76.1335 14.634 75.4195 14.634C74.5855 14.634 73.9705 14.889 73.5745 15.399C73.1845 15.903 72.9895 16.65 72.9895 17.64C72.9895 18.546 73.1845 19.248 73.5745 19.746C73.9705 20.238 74.5495 20.484 75.3115 20.484C75.7915 20.484 76.2025 20.379 76.5445 20.169C76.8865 19.959 77.1475 19.656 77.3275 19.26L79.7755 19.962C79.4095 20.85 78.8305 21.54 78.0385 22.032C77.2525 22.524 76.3915 22.77 75.4555 22.77ZM72.2335 18.324V16.506H78.6775V18.324H72.2335ZM87.0907 22.5C86.4187 22.626 85.7587 22.68 85.1107 22.662C84.4687 22.65 83.8927 22.539 83.3827 22.329C82.8787 22.113 82.4947 21.768 82.2307 21.294C81.9907 20.85 81.8647 20.4 81.8527 19.944C81.8407 19.482 81.8347 18.96 81.8347 18.378V10.08H84.2827V18.234C84.2827 18.612 84.2857 18.954 84.2917 19.26C84.3037 19.56 84.3667 19.8 84.4807 19.98C84.6967 20.322 85.0417 20.508 85.5157 20.538C85.9897 20.568 86.5147 20.544 87.0907 20.466V22.5ZM80.1787 14.67V12.78H87.0907V14.67H80.1787ZM98.7607 22.77L94.9807 19.008L96.4927 17.496L100.255 21.258L98.7607 22.77ZM94.1887 22.77C92.8927 22.77 91.7737 22.488 90.8317 21.924C89.8957 21.36 89.1727 20.571 88.6627 19.557C88.1587 18.543 87.9067 17.364 87.9067 16.02C87.9067 14.676 88.1587 13.497 88.6627 12.483C89.1727 11.469 89.8957 10.68 90.8317 10.116C91.7737 9.552 92.8927 9.27 94.1887 9.27C95.4847 9.27 96.6007 9.552 97.5367 10.116C98.4787 10.68 99.2017 11.469 99.7057 12.483C100.216 13.497 100.471 14.676 100.471 16.02C100.471 17.364 100.216 18.543 99.7057 19.557C99.2017 20.571 98.4787 21.36 97.5367 21.924C96.6007 22.488 95.4847 22.77 94.1887 22.77ZM94.1887 20.466C95.0107 20.478 95.6947 20.301 96.2407 19.935C96.7867 19.569 97.1947 19.05 97.4647 18.378C97.7407 17.706 97.8787 16.92 97.8787 16.02C97.8787 15.12 97.7407 14.34 97.4647 13.68C97.1947 13.02 96.7867 12.507 96.2407 12.141C95.6947 11.775 95.0107 11.586 94.1887 11.574C93.3667 11.562 92.6827 11.739 92.1367 12.105C91.5907 12.471 91.1797 12.99 90.9037 13.662C90.6337 14.334 90.4987 15.12 90.4987 16.02C90.4987 16.92 90.6337 17.7 90.9037 18.36C91.1797 19.02 91.5907 19.533 92.1367 19.899C92.6827 20.265 93.3667 20.454 94.1887 20.466Z" fill="#0C1024"/>
</svg>
